<?xml version="1.0" encoding="UTF-8"?>
<svg width="28px" height="19px" viewBox="0 0 28 19" version="1.1" xmlns="http://www.w3.org/2000/svg" xmlns:xlink="http://www.w3.org/1999/xlink">
    <!-- Generator: Sketch 51.3 (57544) - http://www.bohemiancoding.com/sketch -->
    <title>Page 1 Copy 4</title>
    <desc>Created with Sketch.</desc>
    <defs></defs>
    <g id="Page-1" stroke="none" stroke-width="1" fill="none" fill-rule="evenodd">
        <g id="Group-3-Copy" transform="translate(-113.000000, -23.000000)" fill="#2480fd">
            <path d="M124.163247,23 L124.163247,25.7743878 L121.316692,25.7743878 L118.544594,25.7743878 L118.544594,28.4886735 L113,28.4886735 L113,36.5714286 L118.544594,36.5714286 L118.608951,36.5714286 L121.316692,36.5714286 L121.316692,42 L124.168198,42 L124.168198,39.4797857 L125.341869,39.4797857 L127.014753,39.4797857 L127.059307,39.4797857 L127.059307,42 L129.910813,42 L129.910813,39.4797857 L132.604099,39.4797857 L132.604099,42 L135.455406,42 L135.455406,39.4797857 L138.148693,39.4797857 L138.148693,42 L141,42 L141,28.4886735 L138.148693,28.4886735 L138.148693,31.2029592 L135.455406,31.2029592 L135.376198,31.2029592 L132.604099,31.2029592 L127.014753,31.2029592 L127.014753,23 L124.163247,23 Z M118.608951,31.2029592 L121.316692,31.2029592 L121.316692,28.5662245 L118.608951,28.5662245 L118.608951,31.2029592 Z" id="Page-1-Copy-4" transform="translate(127.000000, 32.500000) scale(-1, 1) translate(-127.000000, -32.500000) "></path>
        </g>
    </g>
</svg>
